HIERARCHY
ROOT Hips
{
	OFFSET 0.0000 0.0000 0.0000
	CHANNELS 6 Xposition Yposition Zposition Zrotation Xrotation Yrotation
	JOINT Spine1
	{
		OFFSET -0.0137 5.0038 -0.0537
		CHANNELS 3 Zrotation Xrotation Yrotation
		JOINT Spine2
		{
			OFFSET -0.0000 7.1253 -0.0298
			CHANNELS 3 Zrotation Xrotation Yrotation
			JOINT Chest
			{
				OFFSET -0.0000 7.5501 -0.8160
				CHANNELS 3 Zrotation Xrotation Yrotation
				JOINT Neck1
				{
					OFFSET -0.1817 26.3113 -0.5533
					CHANNELS 3 Zrotation Xrotation Yrotation
					JOINT Neck2
					{
						OFFSET -0.0000 7.7094 2.3026
						CHANNELS 3 Zrotation Xrotation Yrotation
						JOINT Head
						{
							OFFSET -0.0000 6.1289 1.9537
							CHANNELS 3 Zrotation Xrotation Yrotation
							JOINT Jaw
							{
								OFFSET 0.0026 0.4756 3.0949
								CHANNELS 3 Zrotation Xrotation Yrotation
								End Site
								{
									OFFSET 0.0 1.0 0.0
								}
							}
							JOINT LeftEye
							{
								OFFSET 3.2064 5.3802 7.5869
								CHANNELS 3 Zrotation Xrotation Yrotation
								End Site
								{
									OFFSET 0.0 1.0 0.0
								}
							}
							JOINT RightEye
							{
								OFFSET -3.2224 5.3619 7.5582
								CHANNELS 3 Zrotation Xrotation Yrotation
								End Site
								{
									OFFSET 0.0 1.0 0.0
								}
							}
						}
					}
				}
				JOINT LeftShoulder
				{
					OFFSET 1.6217 23.2372 5.1134
					CHANNELS 3 Zrotation Xrotation Yrotation
					JOINT LeftArm
					{
						OFFSET 14.9198 0.0000 -5.5023
						CHANNELS 3 Zrotation Xrotation Yrotation
						JOINT LeftForeArm
						{
							OFFSET 28.7393 0.0000 -0.0026
							CHANNELS 3 Zrotation Xrotation Yrotation
							JOINT LeftHand
							{
								OFFSET 27.0940 -0.0000 0.0026
								CHANNELS 3 Zrotation Xrotation Yrotation
								JOINT LeftHandThumbEnd
								{
									OFFSET 12.2686 -3.2202 4.8331
									CHANNELS 3 Zrotation Xrotation Yrotation
									End Site
									{
										OFFSET 0.0 1.0 0.0
									}
								}
								JOINT LeftHandMiddleEnd
								{
									OFFSET 19.0120 -0.3129 -0.0340
									CHANNELS 3 Zrotation Xrotation Yrotation
									End Site
									{
										OFFSET 0.0 1.0 0.0
									}
								}
							}
						}
					}
				}
				JOINT RightShoulder
				{
					OFFSET -1.3801 23.1803 5.2142
					CHANNELS 3 Zrotation Xrotation Yrotation
					JOINT RightArm
					{
						OFFSET -15.0372 0.0000 -5.5456
						CHANNELS 3 Zrotation Xrotation Yrotation
						JOINT RightForeArm
						{
							OFFSET -28.7366 0.0000 -0.0026
							CHANNELS 3 Zrotation Xrotation Yrotation
							JOINT RightHand
							{
								OFFSET -27.1336 -0.0000 0.0026
								CHANNELS 3 Zrotation Xrotation Yrotation
								JOINT RightHandThumbEnd
								{
									OFFSET -12.2642 -3.2115 4.8040
									CHANNELS 3 Zrotation Xrotation Yrotation
									End Site
									{
										OFFSET 0.0 1.0 0.0
									}
								}
								JOINT RightHandMiddleEnd
								{
									OFFSET -19.0006 -0.3066 -0.0316
									CHANNELS 3 Zrotation Xrotation Yrotation
									End Site
									{
										OFFSET 0.0 1.0 0.0
									}
								}
							}
						}
					}
				}
			}
		}
	}
	JOINT LeftLeg
	{
		OFFSET 10.0432 -8.4345 2.5957
		CHANNELS 3 Zrotation Xrotation Yrotation
		JOINT LeftShin
		{
			OFFSET -0.0000 -43.2218 -0.8029
			CHANNELS 3 Zrotation Xrotation Yrotation
			JOINT LeftFoot
			{
				OFFSET 0.0000 -42.1551 -3.4815
				CHANNELS 3 Zrotation Xrotation Yrotation
				JOINT LeftToeBase
				{
					OFFSET 0.0000 -5.0595 13.2315
					CHANNELS 3 Zrotation Xrotation Yrotation
					End Site
					{
						OFFSET 0.0 1.0 0.0
					}
				}
			}
		}
	}
	JOINT RightLeg
	{
		OFFSET -10.0473 -8.2953 2.6203
		CHANNELS 3 Zrotation Xrotation Yrotation
		JOINT RightShin
		{
			OFFSET 0.0000 -43.3622 -0.8056
			CHANNELS 3 Zrotation Xrotation Yrotation
			JOINT RightFoot
			{
				OFFSET 0.0000 -42.1174 -3.4784
				CHANNELS 3 Zrotation Xrotation Yrotation
				JOINT RightToeBase
				{
					OFFSET -0.0000 -5.0796 13.2842
					CHANNELS 3 Zrotation Xrotation Yrotation
					End Site
					{
						OFFSET 0.0 1.0 0.0
					}
				}
			}
		}
	}
}
MOTION
Frames: 10
Frame Time: 0.033333
-6.1485 100.6136 0.8521 1.2697 0.7097 5.1027 -1.2322 2.5685 0.6684 -1.1123 -4.6380 3.5813 -4.4901 10.1729 0.9593 -7.3570 12.9022 5.3212 -0.9071 -3.8761 -3.3545 7.4292 -10.1453 -8.1048 -0.0004 0.0424 0.1305 0.7016 -10.5902 -3.7446 -0.7158 -10.6258 4.0161 -1.3599 11.7911 2.6601 -20.7884 -32.7781 -51.3339 -0.2338 0.0958 -130.2024 9.4509 19.0064 -0.6610 -16.6782 10.3180 15.4281 -62.3466 0.9721 2.1650 -7.7684 20.4971 18.5533 41.7578 10.7492 23.1182 0.4337 0.6922 55.8851 -32.3314 -4.8987 20.8100 14.5092 7.2234 -16.7736 49.4944 -3.6034 -5.4971 7.6073 -11.5334 10.7032 -0.0380 18.0503 -0.2403 -9.4924 3.4964 -3.8333 1.7270 -4.9286 -2.2186 -5.3629 -1.3595 -23.8766 0.0081 6.0586 -0.0599 7.9071 -4.7968 -13.8389 -1.4072 -1.3920 1.0998
-5.6614 100.5803 0.6407 1.3070 1.3270 4.8845 -1.4718 2.8609 0.6614 -1.1369 -4.6043 3.7807 -4.8436 10.4701 1.1272 -7.7243 13.4042 5.4434 -0.9427 -3.9299 -3.5880 7.4707 -10.0611 -8.4080 -0.0214 0.0465 0.1402 0.6827 -10.5885 -3.7145 -0.7401 -10.6241 4.0124 -2.4314 12.1184 2.6653 -22.7259 -30.7788 -46.5293 -0.0651 0.0086 -125.0914 12.2392 16.6571 -1.4684 -15.8689 10.4651 15.7040 -61.6611 1.0838 2.2150 -8.0583 21.1846 18.3632 44.2066 12.2061 24.6829 0.0256 0.4325 54.8919 -32.3372 -6.6188 20.5682 14.6162 7.2575 -16.8637 49.5553 -3.5578 -5.5005 7.0010 -11.4837 10.7434 -0.0344 16.9490 -0.2617 -9.2185 2.8246 -3.2917 1.7165 -4.3214 -2.1990 -5.4472 -2.2719 -24.1589 -0.0124 6.0688 -0.0760 8.2752 -4.6330 -13.3505 -1.4119 -1.3226 1.0926
-5.1803 100.5910 0.4331 1.3425 2.0412 4.7407 -1.7169 3.1027 0.6327 -1.1481 -4.5937 3.9768 -5.2108 10.7393 1.2393 -7.9999 13.8199 5.5304 -0.9902 -3.9773 -3.9459 7.4908 -10.1037 -8.8514 -0.0344 0.0618 0.1287 0.6732 -10.5787 -3.7135 -0.7577 -10.6085 3.9924 -4.1263 12.6097 2.4123 -24.1908 -27.8335 -41.8275 0.0822 -0.1750 -117.7286 14.7242 13.1539 -2.2755 -15.0128 10.3206 15.7921 -60.7191 1.1348 2.2875 -8.1107 21.7402 18.0017 47.0493 13.7538 26.7484 -0.4155 0.2592 54.1756 -31.1371 -9.0279 20.3633 14.6804 7.3287 -16.9559 49.6396 -3.4925 -5.5175 6.3976 -11.4791 10.7575 -0.0333 15.7043 -0.2849 -8.9963 2.3555 -2.8640 1.7120 -3.7952 -2.2039 -5.4819 -3.2556 -24.5921 -0.0365 6.0247 -0.0647 8.6246 -4.2943 -12.8787 -1.4207 -1.2397 1.0651
-4.6570 100.6585 0.2633 1.3810 2.8921 4.7954 -1.9918 3.2741 0.6224 -1.1650 -4.6061 4.0758 -5.5827 11.0197 1.3187 -8.1013 14.1172 5.4948 -1.0990 -3.9949 -4.3758 7.5455 -10.2624 -9.3438 -0.0358 0.0665 0.1123 0.6742 -10.5822 -3.7249 -0.7624 -10.6011 3.9706 -6.1619 13.3005 1.8407 -25.0180 -24.0888 -37.2680 0.2668 -0.1073 -107.3528 16.1250 8.3046 -2.5110 -14.6986 10.2103 15.7072 -60.6314 1.2673 2.3436 -7.7959 22.1841 17.4983 50.3022 15.3614 29.2486 -0.8561 0.1825 53.7841 -28.6268 -12.1172 19.8255 14.6817 7.4061 -16.9151 49.6132 -3.4169 -5.4964 5.7514 -11.5292 10.7527 -0.0351 14.1480 -0.3402 -8.7902 2.0703 -2.5428 1.7072 -3.1957 -2.2280 -5.4395 -4.2947 -25.1408 -0.0601 5.8448 -0.0407 9.0623 -3.7928 -12.5542 -1.4227 -1.1656 1.0119
-4.1317 100.7875 0.0937 1.4444 3.8603 5.3155 -2.3001 3.3761 0.6397 -1.2035 -4.5841 3.9737 -5.8676 11.2656 1.2613 -7.7800 14.1224 5.3296 -1.2460 -3.9708 -4.8827 7.5242 -10.6221 -9.7482 -0.0335 0.0478 0.1029 0.6725 -10.5922 -3.7284 -0.7563 -10.6036 3.9541 -7.8020 13.8149 0.9059 -25.5198 -20.1924 -33.2100 0.2928 0.2281 -93.0691 15.4419 4.3334 -1.1044 -14.9306 10.5123 15.7225 -61.0256 1.5454 2.1899 -7.0028 22.4012 16.7917 53.6575 16.6581 31.2154 -0.9602 0.1623 54.2919 -25.4319 -15.2337 19.0846 14.7390 7.3798 -16.6523 49.4189 -3.3578 -5.4789 5.0691 -11.6681 10.5845 -0.0375 12.3126 -0.3861 -8.5748 1.9180 -2.5449 1.6977 -2.5020 -2.2231 -5.3459 -5.3111 -25.7587 -0.0617 5.5257 -0.0293 9.5528 -3.2673 -12.5186 -1.4114 -1.3303 0.9619
-3.5981 100.8643 -0.0879 1.4589 4.8299 6.4183 -2.5708 3.5101 0.6740 -1.2721 -4.4975 3.6455 -5.9974 11.3638 0.9078 -6.8076 13.7164 5.1030 -1.3922 -3.9592 -5.4093 7.1948 -11.0685 -9.9031 -0.0177 0.0272 0.0878 0.6858 -10.6058 -3.7453 -0.7378 -10.6163 3.9327 -8.8356 13.9554 -0.5358 -25.9183 -16.9653 -30.3507 -0.1065 0.3262 -75.0038 12.6742 2.5381 1.7547 -14.6376 11.0141 16.0106 -60.5978 1.8285 1.8767 -5.6740 22.2099 15.8859 56.7252 17.7355 32.1342 -0.8011 0.0634 56.1011 -22.4771 -17.6813 18.4737 14.9410 7.4088 -16.4269 49.6393 -3.2933 -5.4514 4.4737 -11.9788 10.1631 -0.0410 10.5420 -0.4179 -8.2828 1.8704 -2.9434 1.6828 -1.7725 -2.2096 -5.1815 -6.1207 -26.4019 -0.0275 5.0763 -0.0104 9.8914 -2.9181 -13.0498 -1.4024 -1.4205 0.9565
-3.0806 100.8484 -0.2248 1.3982 5.8225 7.9409 -2.8174 3.6043 0.5680 -1.3610 -4.3970 3.1410 -5.9419 11.3059 0.2519 -4.9658 12.7551 4.5801 -1.6331 -3.9387 -5.6685 6.5262 -11.7299 -9.8934 0.0004 0.0220 0.0816 0.6975 -10.5947 -3.7571 -0.7119 -10.6151 3.9225 -9.7296 13.7951 -2.8701 -26.6995 -14.1969 -27.9019 -0.7995 0.2394 -56.4466 11.1114 2.0482 3.0642 -14.2405 11.1414 15.8053 -60.2553 1.9981 1.7292 -3.8549 21.5598 14.8314 58.8956 18.6801 31.7489 -0.6582 -0.1146 59.2832 -20.3150 -19.1808 18.6976 15.1339 7.4317 -16.3873 49.9400 -3.3206 -5.4258 3.9886 -12.4772 9.6606 -0.0414 8.9297 -0.3994 -7.9529 1.9523 -3.7486 1.6650 -1.2838 -2.1747 -4.9543 -6.7487 -27.0734 0.0158 4.5413 0.0096 10.1406 -2.7892 -13.7582 -1.4004 -1.3092 0.9946
-2.5618 100.7951 -0.3646 1.2310 6.8142 9.1455 -3.1372 3.6220 0.2685 -1.4345 -4.2670 2.5887 -5.7955 11.1318 -0.4082 -2.2739 10.9314 3.7439 -1.9399 -3.9055 -5.6612 5.9440 -12.5012 -10.0857 0.0053 0.0163 0.0463 0.6814 -10.5519 -3.8005 -0.6835 -10.5765 3.8913 -10.3588 13.3438 -5.4877 -29.5915 -12.7449 -23.3954 -1.3323 -0.0665 -43.7042 11.6300 1.8610 2.8662 -14.6374 11.0074 15.3769 -60.2158 2.0400 1.7405 -1.7061 20.5599 13.7399 59.8309 19.4127 30.4834 -0.8047 -0.1910 63.7834 -19.3206 -20.0490 19.5189 15.3187 7.3797 -16.4948 49.9216 -3.3838 -5.4171 3.5727 -12.9281 9.6311 -0.0487 7.3988 -0.3680 -7.6813 1.9963 -4.6722 1.6522 -0.9161 -2.0771 -4.6412 -7.3833 -27.5064 0.0125 4.1372 -0.0128 10.3515 -2.5454 -14.2657 -1.4038 -1.1524 1.0713
-1.9743 100.7763 -0.4005 1.0524 7.6160 8.9995 -3.5547 3.5860 0.0051 -1.5086 -4.2166 2.1806 -5.5505 10.8361 -0.6954 0.6637 8.9333 2.8606 -2.2101 -3.8986 -5.7876 5.8217 -13.1319 -10.5186 0.0094 0.0019 -0.0092 0.6640 -10.4971 -3.8545 -0.6550 -10.5204 3.8311 -10.0469 13.3195 -6.7042 -34.2231 -11.7378 -17.8767 -1.2809 -0.3414 -39.4780 12.7084 1.6202 1.2660 -15.1642 10.9376 15.3172 -60.3787 1.9773 1.7620 -0.0681 19.6522 12.9113 59.4501 19.7097 28.8286 -0.8406 -0.4184 69.1331 -18.6900 -18.3558 19.5196 15.2455 7.2279 -16.4978 49.6098 -3.3465 -5.3434 3.1503 -12.8573 10.0721 -0.0445 5.7954 -0.3654 -7.5391 1.9586 -4.8015 1.6387 -0.5015 -1.9735 -4.5054 -8.2679 -27.1838 0.0068 4.2785 -0.0504 10.6128 -2.1753 -14.2432 -1.4074 -1.0446 1.1668
-1.2661 100.7726 -0.2929 1.0272 7.9861 7.5171 -4.0217 3.3597 -0.1750 -1.6015 -4.2500 2.0283 -5.1929 10.4422 -0.6333 3.3255 7.4114 2.1588 -2.4318 -3.8908 -6.1357 5.9432 -13.4507 -11.0895 0.0093 -0.0060 -0.0722 0.6600 -10.4578 -3.9152 -0.6482 -10.4764 3.7626 -8.8978 13.7972 -6.4180 -39.1544 -9.1883 -13.7652 -1.0174 -0.4407 -40.5245 13.5685 2.4607 -0.7235 -15.3167 10.8746 15.4385 -60.4157 1.9169 1.7876 0.9345 18.8946 12.5320 57.8360 19.4224 26.9218 -0.5835 -0.5044 74.8691 -18.0196 -13.7808 18.0479 15.1144 7.0333 -16.4232 49.2742 -3.3096 -5.3115 2.6165 -11.9024 10.5341 -0.0043 4.0760 -0.3437 -7.2646 1.9619 -3.6652 1.6336 -0.2314 -1.9069 -4.8650 -9.3147 -26.3287 0.0162 5.0127 -0.0697 10.8644 -1.8593 -13.4298 -1.4125 -0.9595 1.2038
